<?xml version="1.0" standalone="no"?><!DOCTYPE svg PUBLIC "-//W3C//DTD SVG 1.1//EN" "http://www.w3.org/Graphics/SVG/1.1/DTD/svg11.dtd"><svg t="1657780910228" class="icon" viewBox="0 0 1024 1024" version="1.1" xmlns="http://www.w3.org/2000/svg" p-id="1394" xmlns:xlink="http://www.w3.org/1999/xlink" width="200" height="200"><defs><style type="text/css">@font-face { font-family: feedback-iconfont; src: url("//at.alicdn.com/t/font_1031158_u69w8yhxdu.woff2?t=1630033759944") format("woff2"), url("//at.alicdn.com/t/font_1031158_u69w8yhxdu.woff?t=1630033759944") format("woff"), url("//at.alicdn.com/t/font_1031158_u69w8yhxdu.ttf?t=1630033759944") format("truetype"); }
</style></defs><path d="M489.984 832c1.536 1.536 3.072 2.56 4.608 4.096h0.512c1.536 1.024 3.072 2.048 5.12 2.56h0.512c1.536 0.512 3.584 1.024 5.12 1.536h0.512c2.048 0.512 3.584 0.512 5.632 0.512 2.048 0 3.584 0 5.632-0.512h0.512c2.048-0.512 3.584-1.024 5.12-1.536h0.512c1.536-0.512 3.584-1.536 5.12-2.56h0.512c1.536-1.024 3.072-2.56 4.608-4.096l347.648-347.648c11.776-11.776 11.776-31.232 0-43.52-11.776-11.776-31.232-11.776-43.52 0L542.72 735.744V87.04c0-16.896-13.824-30.72-30.72-30.72s-30.72 13.824-30.72 30.72v648.704L185.856 440.832c-11.776-11.776-31.232-11.776-43.52 0-11.776 11.776-11.776 31.232 0 43.52l347.648 347.648zM925.696 901.12H98.304c-16.896 0-30.72 13.824-30.72 30.72s13.824 30.72 30.72 30.72h827.904c16.896 0 30.72-13.824 30.72-30.72s-14.336-30.72-31.232-30.72z" fill="#0b71b4" p-id="1395"></path></svg>