<?xml version="1.0" standalone="no"?><!DOCTYPE svg PUBLIC "-//W3C//DTD SVG 1.1//EN" "http://www.w3.org/Graphics/SVG/1.1/DTD/svg11.dtd"><svg t="1657692540507" class="icon" viewBox="0 0 1024 1024" version="1.1" xmlns="http://www.w3.org/2000/svg" p-id="7663" xmlns:xlink="http://www.w3.org/1999/xlink" width="200" height="200"><defs><style type="text/css">@font-face { font-family: feedback-iconfont; src: url("//at.alicdn.com/t/font_1031158_u69w8yhxdu.woff2?t=1630033759944") format("woff2"), url("//at.alicdn.com/t/font_1031158_u69w8yhxdu.woff?t=1630033759944") format("woff"), url("//at.alicdn.com/t/font_1031158_u69w8yhxdu.ttf?t=1630033759944") format("truetype"); }
</style></defs><path d="M768.2048 856.1664H210.0224C94.208 856.1664 0 755.3024 0 631.296S94.208 406.528 210.0224 406.528c10.5472 0 21.1968 0.9216 31.8464 2.6624 45.7728-122.1632 155.3408-202.5472 279.3472-202.5472 27.648 0 55.0912 4.096 81.6128 12.0832 14.1312 4.3008 21.9136 18.432 17.3056 31.5392-4.608 13.1072-19.7632 20.2752-33.9968 15.9744-21.0944-6.3488-42.9056-9.6256-64.8192-9.6256-107.2128 0-201.728 76.0832-235.2128 189.2352-1.9456 6.656-6.7584 12.1856-13.312 15.4624-6.5536 3.2768-14.2336 3.7888-21.1968 1.6384-13.824-4.3008-27.7504-6.4512-41.472-6.4512-86.1184 0-156.0576 78.4384-156.0576 174.8992s70.0416 174.8992 156.0576 174.8992h558.2848c111.3088 0 201.8304-100.864 201.8304-224.8704 0-124.0064-90.5216-224.8704-201.8304-224.8704-10.752 0-21.9136 1.1264-34.0992 3.4816-14.6432 2.7648-28.7744-5.9392-31.8464-19.456-2.9696-13.5168 6.3488-26.7264 20.992-29.4912 15.872-3.072 30.6176-4.5056 44.9536-4.5056C909.312 306.5856 1024 429.8752 1024 581.3248S909.312 856.1664 768.2048 856.1664z" p-id="7664" fill="#0b71b4"></path><path d="M997.0688 606.3104c-14.848 0-26.9312-11.1616-26.9312-24.9856 0-124.0064-90.5216-224.8704-201.8304-224.8704s-201.8304 100.864-201.8304 224.8704c0 13.824-12.0832 24.9856-26.9312 24.9856s-26.9312-11.1616-26.9312-24.9856c0-151.552 114.688-274.8416 255.6928-274.8416C909.312 306.5856 1024 429.8752 1024 581.3248c0 13.824-12.0832 24.9856-26.9312 24.9856z" p-id="7665" fill="#0b71b4"></path><path d="M539.4432 636.3136c-5.2224 0-10.4448-1.4336-15.0528-4.3008l-128.1024-79.872c-12.3904-7.68-15.6672-23.2448-7.2704-34.7136 8.2944-11.4688 24.9856-14.5408 37.376-6.7584l113.0496 70.5536 113.0496-70.5536c12.288-7.68 29.0816-4.7104 37.376 6.7584s5.0176 26.9312-7.2704 34.7136l-128.1024 79.9744c-4.5056 2.7648-9.8304 4.1984-15.0528 4.1984z" p-id="7666" fill="#0b71b4"></path></svg>