<?xml version="1.0" standalone="no"?><!DOCTYPE svg PUBLIC "-//W3C//DTD SVG 1.1//EN" "http://www.w3.org/Graphics/SVG/1.1/DTD/svg11.dtd"><svg t="1657688147993" class="icon" viewBox="0 0 1024 1024" version="1.1" xmlns="http://www.w3.org/2000/svg" p-id="2189" xmlns:xlink="http://www.w3.org/1999/xlink" width="200" height="200"><defs><style type="text/css">@font-face { font-family: feedback-iconfont; src: url("//at.alicdn.com/t/font_1031158_u69w8yhxdu.woff2?t=1630033759944") format("woff2"), url("//at.alicdn.com/t/font_1031158_u69w8yhxdu.woff?t=1630033759944") format("woff"), url("//at.alicdn.com/t/font_1031158_u69w8yhxdu.ttf?t=1630033759944") format("truetype"); }
</style></defs><path d="M909 959H115a50 50 0 0 1-50-50l117.722-372h0.487a30.5 30.5 0 1 1 56.674 21.937c0.037 0 0.074 0.01 0.111 0.012L125 884a15 15 0 0 0 15 15h744a15 15 0 0 0 15-15L784.006 558.949c0.037 0 0.074-0.01 0.111-0.012A30.5 30.5 0 1 1 840.791 537h0.487L959 909a50 50 0 0 1-50 50zM292 285c0-121.5 98.5-220 220-220s220 98.5 220 220c0 158.21-220 554-220 554S292 443.21 292 285z m220-160a160 160 0 0 0-160 160c0 135 160 434 160 434s160-299 160-434a160 160 0 0 0-160-160zM412 305a100 100 0 1 1 100 100 100 100 0 0 1-100-100z m140 0a40 40 0 1 0-40 40 40 40 0 0 0 40-40z" fill="#2d405e" p-id="2190"></path></svg>