<?xml version="1.0" standalone="no"?><!DOCTYPE svg PUBLIC "-//W3C//DTD SVG 1.1//EN" "http://www.w3.org/Graphics/SVG/1.1/DTD/svg11.dtd"><svg t="1662609800686" class="icon" viewBox="0 0 1024 1024" version="1.1" xmlns="http://www.w3.org/2000/svg" p-id="11847" xmlns:xlink="http://www.w3.org/1999/xlink" width="32" height="32"><path d="M542.656043 582.716911l-312.399809 312.399809c-37.612143 37.612143-98.594648 37.612143-136.206791 0l-3.40517-3.405169c-37.612824-37.612824-37.612143-98.594648 0-136.206791L403.044083 443.10495l-9.383286-9.383286-6.778331 6.778331c-12.035913 12.035913-31.55026 12.035913-43.586173 0l-99.430958-99.430957c-12.035913-12.035913-12.035913-31.55026 0-43.586173l226.784307-226.784307c12.035913-12.035913 31.55026-12.035913 43.586173 0l99.430958 99.430957c12.035913 12.035913 12.035913 31.55026 0 43.586173l-17.738892 17.738892 158.680912 158.680911 25.230265-25.230265c12.035913-12.035913 31.55026-12.035913 43.586173 0l99.430957 99.430958c12.035913 12.035913 12.035913 31.55026 0 43.586173l-226.784307 226.784307c-12.035913 12.035913-31.55026 12.035913-43.586173 0l-99.430957-99.430958c-11.797551-11.797551-12.031146-30.778649-0.701465-42.861553l-9.697924-9.697923z m-43.345768-43.345768l-52.439614-52.439615-307.425538 307.425538c-14.480825 14.480825-14.480825 37.95879 0 52.439614s37.95879 14.480825 52.439615 0L499.309594 539.371824z m298.419545-104.835643l-175.045477 175.045476a7.707909 7.707909 0 0 0 1.197939 9.349915l44.948241 44.948241a7.70502 7.70502 0 0 0 10.896544 0l172.30159-172.30159a7.70502 7.70502 0 0 0 0-10.896543l-44.948241-44.948241a7.707909 7.707909 0 0 0-9.350596-1.197258z m-245.35406-158.5808l-113.73267 113.732671 157.999877 157.999877 113.732671-113.73267-157.999878-157.999878z m-54.484759-134.428611a7.70502 7.70502 0 0 0-10.896544 0l-172.30159 172.301591a7.70502 7.70502 0 0 0 0 10.896543l44.948241 44.948241a7.70502 7.70502 0 0 0 10.896543 0l172.301591-172.301591a7.70502 7.70502 0 0 0 0-10.896543l-44.948241-44.948241z" p-id="11848" fill="#337ab7"></path></svg>