<?xml version="1.0" standalone="no"?><!DOCTYPE svg PUBLIC "-//W3C//DTD SVG 1.1//EN" "http://www.w3.org/Graphics/SVG/1.1/DTD/svg11.dtd"><svg t="1685698050938" class="icon" viewBox="0 0 1024 1024" version="1.1" xmlns="http://www.w3.org/2000/svg" p-id="4089" xmlns:xlink="http://www.w3.org/1999/xlink" width="200" height="200"><path d="M802 960H222a90.136 90.136 0 0 1-90-90V214a90.136 90.136 0 0 1 90-90h70.5a30 30 0 0 1 0 60H222a30.088 30.088 0 0 0-30 30v656a30.088 30.088 0 0 0 30 30h580a30.088 30.088 0 0 0 30-30V214a30.088 30.088 0 0 0-30-30h-69.5a30 30 0 0 1 0-60H802a90.136 90.136 0 0 1 90 90v656a90.136 90.136 0 0 1-90 90z" fill="#007FCB" p-id="4090"></path><path d="M592 244H432a90 90 0 0 1 0-180h160a90 90 0 0 1 0 180zM432 124a30 30 0 0 0 0 60h160a30 30 0 0 0 0-60z" fill="#007FCB" p-id="4091"></path><path d="M742 405.1H282a29.96 29.96 0 0 1-30-30 29.96 29.96 0 0 1 30-30h460a29.96 29.96 0 0 1 30 30 29.96 29.96 0 0 1-30 30z" fill="#FF6800" p-id="4092"></path><path d="M741.9 577h-460a29.96 29.96 0 0 1-30-30 29.96 29.96 0 0 1 30-30h460a29.96 29.96 0 0 1 30 30 29.96 29.96 0 0 1-30 30z" fill="#FF6800" p-id="4093"></path><path d="M591.9 748.9h-310a29.96 29.96 0 0 1-30-30 29.96 29.96 0 0 1 30-30h310a29.96 29.96 0 0 1 30 30 30.024 30.024 0 0 1-30 30z" fill="#FF6800" p-id="4094"></path><path d="M782 882H649.4a12 12 0 0 1 0-24H782a8.023 8.023 0 0 0 8-8v-42.6a12 12 0 0 1 24 0V850a32.094 32.094 0 0 1-32 32z" fill="#007FCB" p-id="4095"></path><path d="M802 775.4m-12 0a12 12 0 1 0 24 0 12 12 0 1 0-24 0Z" fill="#007FCB" p-id="4096"></path></svg>