<?xml version="1.0" standalone="no"?><!DOCTYPE svg PUBLIC "-//W3C//DTD SVG 1.1//EN" "http://www.w3.org/Graphics/SVG/1.1/DTD/svg11.dtd"><svg class="icon" width="200px" height="200.00px" viewBox="0 0 1024 1024" version="1.1" xmlns="http://www.w3.org/2000/svg"><path d="M797.187584 796.928C569.091584 1024 250.371584 1086.464 38.147584 957.696a81.92 81.92 0 0 1-13.312-128l123.904-123.904a82.688 82.688 0 0 1 107.52-8.96l113.152 80.384a529.92 529.92 0 0 0 262.912-146.432 529.92 529.92 0 0 0 146.432-262.912L697.091584 256a82.688 82.688 0 0 1 8.96-106.24L830.211584 25.6a81.92 81.92 0 0 1 128 13.312c128.512 211.2 66.048 529.92-161.024 758.016z" fill="#94CFF7" /><path d="M710.403584 710.144C921.859584 499.2 973.059584 203.264 847.875584 11.264a78.08 78.08 0 0 0-17.664 13.312l-124.16 124.16a82.432 82.432 0 0 0-8.96 107.264l80.384 113.152a529.92 529.92 0 0 1-146.432 262.912 529.92 529.92 0 0 1-262.912 146.432L256.259584 696.832a82.688 82.688 0 0 0-106.24 8.96L25.859584 829.952a78.08 78.08 0 0 0-13.312 17.664C203.523584 972.8 499.459584 921.6 710.403584 710.144z" fill="#AAD6F9" /><path d="M289.795584 136.704A128 128 0 0 0 256.259584 256a128 128 0 0 0-119.808 33.024 104.448 104.448 0 0 0 0 153.6 183.296 183.296 0 0 0 153.6 46.336 483.328 483.328 0 0 0 151.552-46.848 483.328 483.328 0 0 0 46.848-151.552 183.296 183.296 0 0 0-46.336-153.6 104.448 104.448 0 0 0-152.32-0.256z" fill="#F0A0F2" /><path d="M412.163584 115.456a102.4 102.4 0 0 0-122.368 21.248A128 128 0 0 0 256.259584 256a128 128 0 0 0-119.808 33.024 104.448 104.448 0 0 0 0 153.6 183.296 183.296 0 0 0 153.6 46.336 263.936 263.936 0 0 0 31.744-4.864c1.536-1.536 3.328-2.816 4.864-4.608 111.872-111.36 144.384-264.192 85.504-364.032z" fill="#F5AEF4" /><path d="M146.345074 381.583529m-8.869947 8.869947a12.544 12.544 0 1 0 17.739895-17.739894 12.544 12.544 0 1 0-17.739895 17.739894Z" fill="#FFFFFF" /><path d="M160.515584 423.424c-8.96-12.544-3.584-22.272 4.352-21.504s8.704 13.824 36.608 32a550.144 550.144 0 0 0 52.736 25.6c3.84 4.608-29.696 2.048-56.064-8.704a90.112 90.112 0 0 1-37.632-27.392z" fill="#FFFFFF" /></svg>