<?xml version="1.0" standalone="no"?><!DOCTYPE svg PUBLIC "-//W3C//DTD SVG 1.1//EN" "http://www.w3.org/Graphics/SVG/1.1/DTD/svg11.dtd"><svg t="1684664581477" class="icon" viewBox="0 0 1024 1024" version="1.1" xmlns="http://www.w3.org/2000/svg" p-id="1696" xmlns:xlink="http://www.w3.org/1999/xlink" width="200" height="200"><path d="M511.621623 0.020469c281.79599 0 511.621324 229.845803 511.621324 511.621324S793.417613 1023.263118 511.621623 1023.263118 0.000298 793.417315 0.000298 511.641793 229.825633 0.020469 511.621623 0.020469z" fill="#595757" p-id="1697"></path><path d="M511.621623 45.461531c-256.762468 0-466.180263 209.417794-466.180263 466.159793s209.417794 466.180263 466.180263 466.180263c256.741999 0 466.180263-209.417794 466.180263-466.180263S768.363622 45.461531 511.621623 45.461531z" fill="#FFDB00" p-id="1698"></path><path d="M225.117775 681.963899H377.181581c26.404941 0 24.890239 40.42617 0 40.42617H192.633556c-18.995183 0-33.8147-21.594739-19.81394-40.42617l141.563236-190.44308c42.268375-56.842265 16.33422-100.748156-21.144422-112.702021-37.969896-12.097148-87.770844 8.55602-90.636496 81.691566-1.269075 32.545625-44.028704 28.697463-42.514003-7.982889 3.172687-77.393088 69.082695-134.112539 142.115898-115.62908 82.223759 20.673636 92.806205 116.550183 47.22186 177.875147l-124.307914 167.190357z m313.461451-59.666979h-148.133768c-26.445879 0-32.627501-23.027565-22.720531-39.627881l137.837888-230.68503c8.863054-14.839986 22.700062-21.349111 38.338337-21.349112 24.071481 0 36.14816 13.550443 36.14816 40.508046V581.87075h25.606652c11.442141 0 19.077058 7.737262 19.077059 19.158934 0 12.874968-7.655386 21.246767-19.077059 21.246767h-25.606652v78.846383c0 29.168249-41.470086 29.250125-41.470086 0v-78.825914zM416.195393 581.87075h122.383833l0.020469-213.143143-122.404302 213.143143z m404.527795 119.272553v-159.678254c0-95.160134-134.153477-93.461211-134.153477 0v157.9998c0 29.168249-42.595878 30.928579-42.595878 1.678454V358.677354c0-34.98143 42.595878-34.940492 42.595878 0v99.724709c62.225598-64.538589 176.606073-14.512483 176.606073 80.893278v159.248405c0 29.9256-42.452596 31.153737-42.452596 2.599557z" fill="#595757" p-id="1699"></path></svg>