<?xml version="1.0" standalone="no"?><!DOCTYPE svg PUBLIC "-//W3C//DTD SVG 1.1//EN" "http://www.w3.org/Graphics/SVG/1.1/DTD/svg11.dtd"><svg t="1684654369184" class="icon" viewBox="0 0 1024 1024" version="1.1" xmlns="http://www.w3.org/2000/svg" p-id="2990" xmlns:xlink="http://www.w3.org/1999/xlink" width="200" height="200"><path d="M285.598476 309.906286h364.763429v595.236571H285.598476V309.906286zM739.718095 577.340952h157.159619v338.870858H739.718095V577.340952z" fill="#FFCB57" p-id="2991"></path><path d="M957.415619 938.666667H66.584381c-16.603429 0-30.012952-4.315429-30.012952-20.748191 0-16.408381 13.409524-24.892952 30.012952-24.892952h17.92V165.13219c0-44.007619 36.230095-79.798857 80.774095-79.798857h432.908191c44.544 0 76.263619 35.791238 76.263619 79.798857v227.05981h184.661333c44.544 0 80.774095 35.815619 80.774095 79.798857v420.449524h17.505524c16.62781 0 30.037333 7.289905 30.037333 23.698286 0 16.432762-13.409524 22.528-30.012952 22.528zM633.222095 150.966857c0-11.50781-14.628571-21.284571-26.307047-21.284571H156.355048c-11.678476 0-26.331429 9.776762-26.331429 21.284571l-0.097524 743.350857h503.296V150.966857z m263.070476 306.517333c0-11.093333-26.087619-20.48-37.278476-20.48h-184.563809v455.436191h221.842285v-434.956191z m-162.108952 95.012572h82.773333a29.817905 29.817905 0 0 1 29.93981 29.671619v0.073143a29.793524 29.793524 0 0 1-30.037333 29.574095h-82.651429c-16.579048 0-30.012952-13.287619-30.037333-29.647238v-0.073143a29.793524 29.793524 0 0 1 30.012952-29.598476z m0.024381 169.886476h82.748952a29.817905 29.817905 0 0 1 29.93981 29.671619v0.097524a29.793524 29.793524 0 0 1-30.012952 29.574095H734.110476a29.817905 29.817905 0 0 1-29.939809-29.671619v-0.073143a29.817905 29.817905 0 0 1 30.037333-29.598476zM231.033905 343.332571h82.675809c16.530286 0 30.037333 13.263238 30.037334 29.671619s-13.409524 29.671619-30.037334 29.67162H231.033905a29.817905 29.817905 0 0 1-30.012953-29.67162c0-16.408381 13.409524-29.671619 30.012953-29.671619z m0 140.726858h82.675809c16.530286 0 30.037333 13.263238 30.037334 29.671619v0.073142a29.842286 29.842286 0 0 1-30.037334 29.598477H230.960762a29.817905 29.817905 0 0 1-29.93981-29.671619v-0.073143a29.817905 29.817905 0 0 1 30.012953-29.598476z m0 140.726857h82.675809c16.579048 0 30.037333 13.287619 30.037334 29.671619v0.073143a29.793524 29.793524 0 0 1-30.037334 29.574095H230.985143c-16.579048 0-29.988571-13.287619-29.964191-29.647238v-0.097524a29.793524 29.793524 0 0 1 30.012953-29.574095z m218.721524-281.453715h82.675809c16.505905 0 30.012952 13.263238 30.012952 29.671619s-13.409524 29.671619-30.012952 29.67162h-82.675809a29.817905 29.817905 0 0 1-30.037334-29.67162c0-16.408381 13.409524-29.671619 30.037334-29.671619z m0 140.726858h82.675809c16.554667 0.024381 29.988571 13.287619 30.012952 29.671619v0.073142a29.817905 29.817905 0 0 1-30.012952 29.598477h-82.748952a29.817905 29.817905 0 0 1-29.964191-29.671619v-0.073143a29.793524 29.793524 0 0 1 30.037334-29.598476z m0 140.726857h82.675809c16.554667 0 29.988571 13.287619 30.012952 29.671619v0.073143a29.793524 29.793524 0 0 1-30.012952 29.574095h-82.748952c-16.579048 0-29.988571-13.287619-29.964191-29.647238v-0.097524a29.793524 29.793524 0 0 1 30.037334-29.574095z" fill="#7A590E" p-id="2992"></path></svg>