<svg viewBox="0 0 1024 1024" xmlns:xlink="http://www.w3.org/1999/xlink" xmlns="http://www.w3.org/2000/svg" id="图层_1"><defs><style>.cls-1{fill:#fff;}.cls-2{fill:url(#未命名的渐变_16);}.cls-3{fill:url(#未命名的渐变_16-2);}.cls-4{fill:url(#未命名的渐变_16-3);}.cls-5{fill:url(#未命名的渐变_16-4);}.cls-6{fill:url(#未命名的渐变_16-5);}.cls-7{fill:url(#未命名的渐变_15);}.cls-8{fill:url(#未命名的渐变_16-6);}.cls-9{fill:url(#未命名的渐变_19);}.cls-10{fill:url(#未命名的渐变_19-2);}.cls-11{fill:url(#未命名的渐变_19-3);}.cls-12{fill:url(#未命名的渐变_15-2);}.cls-13{fill:url(#未命名的渐变_14);}.cls-14{fill:url(#未命名的渐变_19-4);}.cls-15{fill:url(#未命名的渐变_19-5);}.cls-16{fill:url(#未命名的渐变_19-6);}.cls-17{fill:url(#未命名的渐变_19-7);}.cls-18{fill:url(#未命名的渐变_19-8);}.cls-19{fill:url(#未命名的渐变_19-9);}.cls-20,.cls-21,.cls-22{fill-rule:evenodd;}.cls-20{fill:url(#未命名的渐变_21);}.cls-21{fill:#ffea00;}.cls-22{fill:url(#未命名的渐变_21-2);}.cls-23{fill:#f8d541;}.cls-24{fill:#f8e16b;}</style><linearGradient gradientUnits="userSpaceOnUse" gradientTransform="translate(194 4318.71)" y2="-4840.65" x2="613.24" y1="-3656.06" x1="613.24" id="未命名的渐变_16"><stop stop-color="#fff" offset="0.23"></stop><stop stop-color="#feca1e" offset="1"></stop></linearGradient><linearGradient xlink:href="#未命名的渐变_16" y2="-4763.28" x2="507.1" y1="-3578.68" x1="507.1" id="未命名的渐变_16-2"></linearGradient><linearGradient xlink:href="#未命名的渐变_16" y2="-4592.94" x2="176.5" y1="-3843.81" x1="176.5" id="未命名的渐变_16-3"></linearGradient><linearGradient xlink:href="#未命名的渐变_16" y2="-4127.32" x2="159.12" y1="-4065.35" x1="159.12" id="未命名的渐变_16-4"></linearGradient><linearGradient xlink:href="#未命名的渐变_16" y2="-4186.58" x2="159.12" y1="-4124.61" x1="159.12" id="未命名的渐变_16-5"></linearGradient><linearGradient gradientUnits="userSpaceOnUse" gradientTransform="translate(194 4318.71)" y2="-4434.15" x2="164.6" y1="-3574.37" x1="164.6" id="未命名的渐变_15"><stop stop-opacity="0" stop-color="#fff" offset="0.23"></stop><stop stop-color="#feca1e" offset="1"></stop></linearGradient><linearGradient xlink:href="#未命名的渐变_16" y2="-4644.43" x2="148.09" y1="-3639.9" x1="148.09" id="未命名的渐变_16-6"></linearGradient><linearGradient gradientUnits="userSpaceOnUse" gradientTransform="translate(194 4318.71)" y2="-4350.1" x2="-8.54" y1="-4137.38" x1="-14.26" id="未命名的渐变_19"><stop stop-opacity="0.5" stop-color="#fdaa3b" offset="0"></stop><stop stop-opacity="0.2" stop-color="#ffea00" offset="1"></stop></linearGradient><linearGradient xlink:href="#未命名的渐变_19" y2="-3968.75" x2="124.59" y1="-3886.03" x1="124.59" id="未命名的渐变_19-2"></linearGradient><linearGradient xlink:href="#未命名的渐变_19" y2="-3818.78" x2="123.5" y1="-3989.73" x1="124.85" id="未命名的渐变_19-3"></linearGradient><linearGradient xlink:href="#未命名的渐变_15" gradientTransform="matrix(1, 0, 0, -1, 0, -4029.24)" y2="-4384.28" x2="512" y1="-4755.02" x1="512" id="未命名的渐变_15-2"></linearGradient><linearGradient gradientUnits="userSpaceOnUse" gradientTransform="matrix(156.58, -186.6, 314.21, 263.66, 1635548.98, 999932.52)" y2="-4618.56" x2="-1171.78" y1="-4621.57" x1="-1171.74" id="未命名的渐变_14"><stop stop-color="#ffe307" offset="0"></stop><stop stop-opacity="0" stop-color="#e9effb" offset="1"></stop></linearGradient><linearGradient xlink:href="#未命名的渐变_19" y2="-3984.9" x2="473.37" y1="-3905.45" x1="473.37" id="未命名的渐变_19-4"></linearGradient><linearGradient xlink:href="#未命名的渐变_19" y2="-3840.86" x2="472.29" y1="-4005.05" x1="473.59" id="未命名的渐变_19-5"></linearGradient><linearGradient xlink:href="#未命名的渐变_19" y2="-3959.63" x2="389.46" y1="-3881.3" x1="389.46" id="未命名的渐变_19-6"></linearGradient><linearGradient xlink:href="#未命名的渐变_19" y2="-3833.05" x2="388.55" y1="-3971.49" x1="389.65" id="未命名的渐变_19-7"></linearGradient><linearGradient xlink:href="#未命名的渐变_19" y2="-3953.1" x2="46.21" y1="-3874.76" x1="46.21" id="未命名的渐变_19-8"></linearGradient><linearGradient xlink:href="#未命名的渐变_19" y2="-3826.51" x2="45.38" y1="-3964.96" x1="46.47" id="未命名的渐变_19-9"></linearGradient><linearGradient gradientUnits="userSpaceOnUse" gradientTransform="matrix(-1, -0.09, 0.09, -1, 781.47, -3990.82)" y2="-4444.51" x2="59.62" y1="-4444.51" x1="-99.86" id="未命名的渐变_21"><stop stop-color="#ffea00" offset="0"></stop><stop stop-color="#fda73e" offset="0.68"></stop></linearGradient><linearGradient xlink:href="#未命名的渐变_21" gradientTransform="matrix(-147.78, -85.93, -109.42, 188.18, -678400.47, 768982.42)" y2="-4620.16" x2="-1173.09" y1="-4621.68" x1="-1173.23" id="未命名的渐变_21-2"></linearGradient></defs><rect height="1024" width="1024" class="cls-1"></rect><ellipse ry="283.2" rx="181.1" cy="396.11" cx="807.24" class="cls-2"></ellipse><ellipse ry="283.2" rx="181.1" cy="473.49" cx="701.1" class="cls-3"></ellipse><rect rx="13.52" height="358.19" width="96.82" y="127.24" x="322.09" class="cls-4"></rect><rect height="29.63" width="14.43" y="224.6" x="345.9" class="cls-5"></rect><rect height="29.63" width="14.43" y="165.34" x="345.9" class="cls-6"></rect><path d="M358.86,345.33l-48.67,52.91v358.2H407V398.24ZM347.22,456.74H331.35V424.16h15.87Z" class="cls-7"></path><path d="M480.92,212.63H203.26c-17.5,0-31.7,7.19-31.7,16.05V676.9c0,8.86,14.2,16,31.7,16H480.92c17.5,0,31.7-7.18,31.7-16V228.67C512.62,219.81,498.42,212.63,480.92,212.63ZM226.13,261h47.13v49H226.13Zm93,161.36H272v-49h47.14Z" class="cls-8"></path><path d="M248.62,146.82a29.32,29.32,0,0,0-29.21-29.28,40.66,40.66,0,0,0-75.56-6.19,32.43,32.43,0,0,0,1.26,64.83h.23v.36h74.41v-.44A29.33,29.33,0,0,0,248.62,146.82Z" class="cls-9"></path><rect height="39.55" width="9.24" y="394.29" x="313.97" class="cls-10"></rect><path d="M338.1,353.3A20.73,20.73,0,0,0,298.31,356a20.73,20.73,0,0,0,4.89,40.87h1.22a20.71,20.71,0,0,0,29.05-2.56h.28a20.73,20.73,0,0,0,4.35-41Z" class="cls-11"></path><path d="M990.22,725.78c15.89-27.57,24.47-57,24.47-87.54C1014.69,481.83,789.63,355,512,355S9.31,481.83,9.31,638.24c0,30.55,8.59,60,24.47,87.54Z" class="cls-12"></path><polygon points="316.98 553.87 416.77 519.8 1014.69 756.44 739.64 964.54 316.98 553.87" class="cls-13" id="路径"></polygon><rect height="37.99" width="8.87" y="376.38" x="662.93" class="cls-14"></rect><path d="M686.11,337a19.91,19.91,0,0,0-38.22,2.61,19.91,19.91,0,0,0,4.69,39.26h1.18a19.88,19.88,0,0,0,27.9-2.47h.27a19.91,19.91,0,0,0,4.18-39.37Z" class="cls-15"></path><rect height="32.03" width="7.48" y="400.1" x="579.72" class="cls-16"></rect><path d="M599.26,366.91A16.79,16.79,0,0,0,567,369.12a16.78,16.78,0,0,0,4,33.09h1a16.76,16.76,0,0,0,23.53-2.08h.23a16.78,16.78,0,0,0,3.52-33.19Z" class="cls-17"></path><rect height="32.03" width="7.48" y="406.64" x="236.47" class="cls-18"></rect><path d="M256,373.45a16.79,16.79,0,0,0-32.23,2.21,16.78,16.78,0,0,0,4,33.09h1a16.76,16.76,0,0,0,23.53-2.08h.23A16.78,16.78,0,0,0,256,373.45Z" class="cls-19"></path><path d="M495.07,352.71,480.69,337.4l-32,42.94L433.93,383,318.09,547.71a6.1,6.1,0,0,0,1.49,8.5h0l.08.06,27.68,18.8a6.09,6.09,0,0,0,8.47-1.62L469.08,406.63h0l-.94-13.95Z" class="cls-20"></path><path d="M510.16,365.13l-13.25-14.54-31.91,43-14.17,3-115.62,165a6.12,6.12,0,0,0,1.49,8.5h.08l25.16,17.09a6.12,6.12,0,0,0,8.48-1.62L483.69,418.72h0l-.47-13.63Z" class="cls-21" id="矩形备份-22"></path><path d="M508.7,366.84C436.21,320,422,261.73,480,157.69,527,76.85,606.75,30.08,674,80.08c83.65,51,79.18,126.55,32.18,207.39S569.77,409.54,508.7,366.84Z" class="cls-22"></path><ellipse transform="translate(59.42 606.81) rotate(-54.82)" ry="96.1" rx="160.17" cy="246.11" cx="614.78" class="cls-23"></ellipse><ellipse transform="translate(57.57 609.33) rotate(-54.73)" ry="70.48" rx="124.1" cy="249.04" cx="617.45" class="cls-24" id="椭圆形备份-15"></ellipse></svg>