<?xml version="1.0" standalone="no"?><!DOCTYPE svg PUBLIC "-//W3C//DTD SVG 1.1//EN" "http://www.w3.org/Graphics/SVG/1.1/DTD/svg11.dtd"><svg t="1686129799912" class="icon" viewBox="0 0 1024 1024" version="1.1" xmlns="http://www.w3.org/2000/svg" p-id="21249" xmlns:xlink="http://www.w3.org/1999/xlink" width="200" height="200"><path d="M349.208482 409.592274l234.57427-234.76044a102.486616 102.486616 0 0 0 0-144.840303 102.207361 102.207361 0 0 0-144.654133 0l-409.15524 409.574122a102.486616 102.486616 0 0 0 0 144.840303l409.108697 409.574123c39.980019 39.980019 104.720656 39.980019 144.700676 0a102.486616 102.486616 0 0 0 0-144.840304L349.208482 614.379335h572.472921A102.346988 102.346988 0 0 0 1023.935306 511.985805c0-56.549154-45.797834-102.393531-102.300446-102.393531H349.208482z" fill="#7352BF" p-id="21250"></path></svg>