<?xml version="1.0" standalone="no"?><!DOCTYPE svg PUBLIC "-//W3C//DTD SVG 1.1//EN" "http://www.w3.org/Graphics/SVG/1.1/DTD/svg11.dtd"><svg t="1662610647632" class="icon" viewBox="0 0 1024 1024" version="1.1" xmlns="http://www.w3.org/2000/svg" p-id="20979" width="34" height="34" xmlns:xlink="http://www.w3.org/1999/xlink"><path d="M625.927676 446.081047a6.978012 6.978012 0 0 1 6.978012-6.978012 6.978012 6.978012 0 0 1 6.978012 6.978012 6.978012 6.978012 0 0 1-6.978012 6.978012 6.978012 6.978012 0 0 1-6.978012-6.978012z m-47.171361-15.351627a7.024532 7.024532 0 0 1 0-9.862257 6.978012 6.978012 0 0 1 9.862257 0 6.978012 6.978012 0 0 1 0 9.862257 6.978012 6.978012 0 0 1-4.977649 2.093404 7.117572 7.117572 0 0 1-4.884608-2.093404z m98.389969 0a6.978012 6.978012 0 0 1 0-9.908777 7.071052 7.071052 0 0 1 9.908777 0 7.024532 7.024532 0 0 1 0 9.862257 6.884972 6.884972 0 0 1-4.931129 2.046884 6.884972 6.884972 0 0 1-4.977648-2.093404z m-120.952208-53.963292a7.024532 7.024532 0 0 1 6.978012-7.024533 7.024532 7.024532 0 0 1 7.024532 6.978012 6.978012 6.978012 0 0 1-6.978012 6.978012 7.024532 7.024532 0 0 1-6.978012-6.884971z m139.188079 0a7.024532 7.024532 0 0 1 6.978012-7.024533 6.978012 6.978012 0 0 1 6.978012 6.931492 6.978012 6.978012 0 0 1-6.978012 6.978012 6.978012 6.978012 0 0 1-6.931492-7.164092z m0-0.279121z m-116.858441-43.868435a6.931492 6.931492 0 0 1 0-9.862257 6.978012 6.978012 0 0 1 9.862257 0 6.978012 6.978012 0 0 1 0 9.862257 7.024532 7.024532 0 0 1-4.931128 2.046883 6.838452 6.838452 0 0 1-4.884609-2.326004z m98.389969-0.279121a6.931492 6.931492 0 0 1 0-9.862257 6.978012 6.978012 0 0 1 9.862257 0 6.978012 6.978012 0 0 1 0 9.862257 6.931492 6.931492 0 0 1-4.977648 2.046884 6.884972 6.884972 0 0 1-4.838088-2.326004z m-51.172088-25.120843a6.931492 6.931492 0 0 1 6.931492-7.303653 7.024532 7.024532 0 0 1 7.024532 6.978012 6.978012 6.978012 0 0 1-6.978012 6.978012 6.931492 6.931492 0 0 1-7.071052-6.838451zM567.544975 596.759586a7.024532 7.024532 0 0 1-6.00109-3.395966l-16.328548-27.353807-27.912048 15.723787a6.978012 6.978012 0 0 1-7.722333-0.558241 6.838452 6.838452 0 0 1-2.465564-7.303653L544.284935 434.730147a7.024532 7.024532 0 0 1 9.629657-4.652008l4.233327 1.953844a6.884972 6.884972 0 0 1 3.954207 4.931128l4.652008 22.562239 22.98092-0.511721a6.791932 6.791932 0 0 1 5.721969 2.744685l7.861894 10.327457a6.884972 6.884972 0 0 1 1.163002 6.001091l-29.912411 113.415955a6.931492 6.931492 0 0 1-5.76849 5.117208z m-19.817554-47.124841a6.884972 6.884972 0 0 1 5.954571 3.395966l11.350899 18.933672 24.841723-94.110122-3.675086-4.652008-25.213884 0.558241a6.978012 6.978012 0 0 1-7.024532-5.582409l-1.860803-9.304016-27.028167 102.344176 19.212793-10.885699a6.884972 6.884972 0 0 1 3.535527-0.697801zM698.0338 596.759586h-0.976922a6.931492 6.931492 0 0 1-5.76849-5.117209l-29.958931-113.415955a7.071052 7.071052 0 0 1 1.209522-6.00109l7.861893-10.327458a6.745412 6.745412 0 0 1 5.67545-2.744685l22.98092 0.511721 4.652008-22.562239a7.071052 7.071052 0 0 1 3.954206-4.931128l4.279848-1.953844a7.024532 7.024532 0 0 1 9.629656 4.652008l36.704343 139.001999a6.978012 6.978012 0 0 1-10.187897 7.861894l-27.912048-15.723787-16.375068 27.353807a6.884972 6.884972 0 0 1-5.76849 3.395966z m-22.329639-118.905325l24.841723 94.342722 11.304379-18.933672a7.024532 7.024532 0 0 1 9.304016-2.512084l19.212794 10.885698-27.074687-102.344176-1.860803 9.304016a6.931492 6.931492 0 0 1-6.978012 5.58241l-25.260404-0.558241z" fill="#337ab7" p-id="20980"></path><path d="M607.180084 495.950572a6.931492 6.931492 0 0 1-5.58241-2.791204l-15.444667-20.096675-25.213883 0.558241a6.978012 6.978012 0 0 1-7.024532-5.58241L548.936943 443.289842l-23.260039-10.373978a6.978012 6.978012 0 0 1-3.861167-8.094494l6.187171-24.469562-16.188988-19.398873a6.884972 6.884972 0 0 1 0-8.931856l16.188988-19.398873-6.187171-24.516082a6.931492 6.931492 0 0 1 3.861167-8.047974l23.260039-10.420498 5.024169-24.748682a7.024532 7.024532 0 0 1 7.024532-5.58241l25.213884 0.558241 15.305106-20.096675a7.024532 7.024532 0 0 1 8.745775-1.953843l22.422678 11.49046 22.515719-11.49046a6.884972 6.884972 0 0 1 8.699255 1.953843l15.305106 20.096675 25.260404-0.558241a7.024532 7.024532 0 0 1 6.978012 5.58241l5.070688 24.748682L739.669271 320.05815a6.931492 6.931492 0 0 1 3.907687 8.047974l-6.233691 24.516082L753.625295 372.16064a7.024532 7.024532 0 0 1 0 8.931855l-16.188988 19.398873 6.187171 24.469562a6.978012 6.978012 0 0 1-3.907687 8.094494l-22.980919 10.373978-4.977649 24.609122a6.931492 6.931492 0 0 1-6.978012 5.58241l-25.260403-0.558241-15.491187 20.050155a6.931492 6.931492 0 0 1-8.699255 2.000363L632.673087 483.808832l-22.469198 11.490459a7.071052 7.071052 0 0 1-3.023805 0.651281z m25.632564-27.074686a7.071052 7.071052 0 0 1 3.209885 0.744321l20.468835 10.467018 13.956024-18.282391a6.745412 6.745412 0 0 1 5.67545-2.744685l22.98092 0.511721 4.652008-22.562239a7.071052 7.071052 0 0 1 3.954206-4.931128l20.934036-9.304016-5.582409-22.283119a6.931492 6.931492 0 0 1 1.395602-6.18717l14.700345-17.631111-14.700345-17.67763a6.838452 6.838452 0 0 1-1.395602-6.140651l5.582409-22.283118-20.934036-9.304016a7.164092 7.164092 0 0 1-3.954206-4.977648l-4.652008-22.515719-22.98092 0.511721a6.838452 6.838452 0 0 1-5.67545-2.744685l-13.956024-18.282391-20.468835 10.467018a6.978012 6.978012 0 0 1-6.373251 0L609.413047 272.886789l-13.956024 18.282391a6.745412 6.745412 0 0 1-5.721969 2.744685l-22.98092-0.511721-4.652008 22.515719A6.931492 6.931492 0 0 1 558.240959 320.988552l-20.934036 9.304016 5.62893 22.283118a6.838452 6.838452 0 0 1-1.395602 6.140651l-14.746866 17.67763 14.746866 17.63111a6.931492 6.931492 0 0 1 1.395602 6.187171l-5.62893 22.283118 20.934036 9.304016a6.884972 6.884972 0 0 1 3.954207 4.931129l4.652008 22.562238 22.98092-0.51172a6.791932 6.791932 0 0 1 5.72197 2.744684l13.956024 18.282392 20.468835-10.467018a7.024532 7.024532 0 0 1 2.698164-0.465201z" fill="#337ab7" p-id="20981"></path><path d="M632.673087 642.860985a6.978012 6.978012 0 0 1-6.978012-6.978012v-160.029075a6.978012 6.978012 0 1 1 13.956024 0v160.029075a6.978012 6.978012 0 0 1-6.978012 6.978012zM307.404688 711.757223a6.978012 6.978012 0 0 1-6.978012-6.978012V136.582955a35.866982 35.866982 0 0 0-36.564782-34.84354 6.978012 6.978012 0 0 1 0-13.956024l315.964383 0.651281a59.080502 59.080502 0 0 1 59.917863 57.777939v122.533891a6.978012 6.978012 0 1 1-13.956024 0V146.212611a45.077957 45.077957 0 0 0-45.961839-43.868435l-280.562603-0.558241a47.869162 47.869162 0 0 1 15.119026 34.7505v568.289296a6.978012 6.978012 0 0 1-6.978012 6.931492z" fill="#337ab7" p-id="20982"></path><path d="M307.404688 235.903325H219.993458a6.978012 6.978012 0 0 1-6.978012-6.978012V136.582955a49.869526 49.869526 0 0 1 50.706887-48.799564 49.823006 49.823006 0 0 1 50.660367 48.799564v92.342358a6.978012 6.978012 0 0 1-6.978012 6.978012z m-80.433218-13.956024h73.455206V136.582955a36.797383 36.797383 0 0 0-73.455206 0zM351.133564 753.253135h-4.652008a49.311285 49.311285 0 0 1-45.822279-48.520444 6.978012 6.978012 0 0 1 13.956024 0 35.448301 35.448301 0 0 0 33.122297 34.65746h3.628566a35.820462 35.820462 0 0 0 36.704343-34.79702V637.325095a6.978012 6.978012 0 0 1 13.956024 0v66.988916a49.776486 49.776486 0 0 1-50.892967 48.939124z" fill="#337ab7" p-id="20983"></path><path d="M622.71779 753.253135H351.133564a6.978012 6.978012 0 1 1 0-13.956024 35.820462 35.820462 0 0 0 36.704343-34.79702V637.325095a6.978012 6.978012 0 0 1 6.978012-6.978012h271.584226a6.978012 6.978012 0 0 1 6.978012 6.978012v66.988916a49.823006 49.823006 0 0 1-50.660367 48.939124z m-236.135926-13.956024h236.089406a35.820462 35.820462 0 0 0 36.750863-34.79702v-60.010903H401.793931v60.010903a47.636562 47.636562 0 0 1-15.212067 34.79702zM868.576413 713.618027h-92.202799a6.978012 6.978012 0 0 1-6.978012-6.978012V309.405052a6.978012 6.978012 0 0 1 6.978012-6.978012h92.202799a6.978012 6.978012 0 0 1 6.978012 6.978012v397.234963a6.978012 6.978012 0 0 1-6.978012 6.978012z m-85.224787-13.956024h78.246775V316.336544h-78.246775z" fill="#337ab7" p-id="20984"></path><path d="M807.309468 713.618027a6.978012 6.978012 0 0 1-6.978012-6.978012V309.405052a6.978012 6.978012 0 0 1 13.956024 0v397.234963a6.978012 6.978012 0 0 1-6.978012 6.978012zM836.431038 713.618027a6.978012 6.978012 0 0 1-6.978012-6.978012V309.405052a6.978012 6.978012 0 1 1 13.956024 0v397.234963a6.978012 6.978012 0 0 1-6.978012 6.978012z" fill="#337ab7" p-id="20985"></path><path d="M827.266582 754.927858h-9.583137a48.287843 48.287843 0 0 1-48.287843-48.287843 6.978012 6.978012 0 0 1 6.978012-6.978012h92.202799a6.978012 6.978012 0 0 1 6.978012 6.978012 48.287843 48.287843 0 0 1-48.287843 48.287843z m-43.217154-41.309831a34.378339 34.378339 0 0 0 33.634017 27.353807h9.583137a34.378339 34.378339 0 0 0 33.634018-27.353807zM868.576413 317.453026h-92.202799a6.978012 6.978012 0 0 1-5.721969-2.977285 6.931492 6.931492 0 0 1-0.837362-6.373251l46.101399-126.999819a6.978012 6.978012 0 0 1 13.118663 0l46.101399 126.999819a6.931492 6.931492 0 0 1-0.837361 6.373251 6.978012 6.978012 0 0 1-5.72197 2.977285z m-82.247501-13.956024h72.292204l-36.146102-99.552971z" fill="#337ab7" p-id="20986"></path><path d="M844.944212 253.953116h-45.543158a6.978012 6.978012 0 0 1 0-13.956024h45.543158a6.978012 6.978012 0 0 1 0 13.956024zM433.194985 753.253135a6.978012 6.978012 0 0 1-6.978012-6.978012v-23.26004a6.978012 6.978012 0 0 1 13.956024 0v23.26004a6.978012 6.978012 0 0 1-6.978012 6.978012zM469.852808 753.253135a6.978012 6.978012 0 0 1-6.978012-6.978012v-23.26004a6.978012 6.978012 0 0 1 13.956024 0v23.26004a6.978012 6.978012 0 0 1-6.978012 6.978012zM506.09195 753.253135a6.978012 6.978012 0 0 1-6.978012-6.978012v-23.26004a6.978012 6.978012 0 0 1 13.956024 0v23.26004a6.978012 6.978012 0 0 1-6.978012 6.978012zM542.517172 753.253135a6.978012 6.978012 0 0 1-6.978012-6.978012v-23.26004a6.978012 6.978012 0 1 1 13.956024 0v23.26004a6.978012 6.978012 0 0 1-6.978012 6.978012zM578.942395 753.253135a6.978012 6.978012 0 0 1-6.978012-6.978012v-23.26004a6.978012 6.978012 0 0 1 13.956024 0v23.26004a6.978012 6.978012 0 0 1-6.978012 6.978012zM615.414138 753.253135a6.978012 6.978012 0 0 1-6.978012-6.978012v-23.26004a6.978012 6.978012 0 0 1 13.956024 0v23.26004a6.978012 6.978012 0 0 1-6.978012 6.978012zM338.945303 128.581501a6.978012 6.978012 0 0 1-6.978012-6.978012v-23.26004a6.978012 6.978012 0 0 1 13.956024 0v23.26004a6.978012 6.978012 0 0 1-6.978012 6.978012zM383.046338 128.581501a6.978012 6.978012 0 0 1-6.978012-6.978012v-23.26004a6.978012 6.978012 0 0 1 13.956024 0v23.26004a6.978012 6.978012 0 0 1-6.978012 6.978012zM427.193894 128.581501a6.978012 6.978012 0 0 1-6.978012-6.978012v-23.26004a6.978012 6.978012 0 0 1 13.956024 0v23.26004a6.978012 6.978012 0 0 1-6.978012 6.978012zM471.29493 128.581501a6.978012 6.978012 0 0 1-6.978012-6.978012v-23.26004a6.978012 6.978012 0 0 1 13.956024 0v23.26004a6.978012 6.978012 0 0 1-6.978012 6.978012zM515.395966 128.581501a6.978012 6.978012 0 0 1-6.978012-6.978012v-23.26004a6.978012 6.978012 0 1 1 13.956024 0v23.26004a6.978012 6.978012 0 0 1-6.978012 6.978012zM559.543522 128.581501a6.978012 6.978012 0 0 1-6.978012-6.978012v-23.26004a6.978012 6.978012 0 0 1 13.956024 0v23.26004a6.978012 6.978012 0 0 1-6.978012 6.978012zM589.223333 240.276213H365.647828a6.978012 6.978012 0 0 1-6.978012-6.978012v-44.380156a6.978012 6.978012 0 0 1 6.978012-6.978012h223.575505a6.978012 6.978012 0 0 1 6.978012 6.978012v44.380156a6.978012 6.978012 0 0 1-6.978012 6.978012z m-216.597493-13.956024h209.619481v-30.424132H372.62584zM471.43449 293.402144H365.647828a6.978012 6.978012 0 0 1 0-13.956024h105.786662a6.978012 6.978012 0 0 1 0 13.956024zM471.43449 346.900236H365.647828a6.978012 6.978012 0 0 1 0-13.956024h105.786662a6.978012 6.978012 0 0 1 0 13.956024zM471.43449 400.398328H365.647828a6.978012 6.978012 0 0 1 0-13.956024h105.786662a6.978012 6.978012 0 0 1 0 13.956024zM471.43449 453.89642H365.647828a6.978012 6.978012 0 0 1 0-13.956024h105.786662a6.978012 6.978012 0 0 1 0 13.956024zM471.43449 507.394512H365.647828a6.978012 6.978012 0 0 1 0-13.956024h105.786662a6.978012 6.978012 0 0 1 0 13.956024zM471.43449 560.892604H365.647828a6.978012 6.978012 0 0 1 0-13.956024h105.786662a6.978012 6.978012 0 0 1 0 13.956024zM247.114665 235.903325a6.978012 6.978012 0 0 1-6.978012-6.978012v-26.609485a6.978012 6.978012 0 0 1 13.956024 0v26.609485a6.978012 6.978012 0 0 1-6.978012 6.978012zM275.026713 235.903325a6.978012 6.978012 0 0 1-6.978012-6.978012v-26.609485a6.978012 6.978012 0 0 1 13.956024 0v26.609485a6.978012 6.978012 0 0 1-6.978012 6.978012zM130.674905 936.58877v1.814283a4.977649 4.977649 0 0 1-0.418681 1.302562 1.628203 1.628203 0 0 1-0.604761 0.744321 1.302562 1.302562 0 0 1-0.837362 0.279121H97.692168a3.954207 3.954207 0 0 1-2.372524-0.883882 3.489006 3.489006 0 0 1-1.116482-2.977285v-65.128112a1.163002 1.163002 0 0 1 0.2326-0.790841 1.349082 1.349082 0 0 1 0.744322-0.511721 7.257132 7.257132 0 0 1 1.488642-0.32564 17.910231 17.910231 0 0 1 4.652008 0 7.489733 7.489733 0 0 1 1.442123 0.32564 1.488643 1.488643 0 0 1 0.790841 0.511721 1.442122 1.442122 0 0 1 0 0.790841v60.987825h25.306923a1.628203 1.628203 0 0 1 0.837362 0 2.186444 2.186444 0 0 1 0.604761 0.697801 4.000727 4.000727 0 0 1 0.372161 1.256042c-0.04652 0.372161 0 1.163002 0 1.907324zM180.31183 936.77485a9.304016 9.304016 0 0 1 0 1.721243 3.070325 3.070325 0 0 1-0.372161 1.256042 1.814283 1.814283 0 0 1-0.604761 0.697801 1.721243 1.721243 0 0 1-0.790841 0.232601h-34.006179a3.954207 3.954207 0 0 1-2.372524-0.883882 3.489006 3.489006 0 0 1-1.116482-2.977285v-62.895148a3.535526 3.535526 0 0 1 1.116482-2.977285 3.907687 3.907687 0 0 1 2.372524-0.837361h33.447938a1.442122 1.442122 0 0 1 0.790841 0.2326 1.488643 1.488643 0 0 1 0.604761 0.697801 6.419771 6.419771 0 0 1 0.325641 1.209522 10.467018 10.467018 0 0 1 0 1.860803 9.536616 9.536616 0 0 1 0 1.721243 5.070689 5.070689 0 0 1-0.325641 1.163002 1.488643 1.488643 0 0 1-0.604761 0.697802 1.442122 1.442122 0 0 1-0.790841 0.2326h-27.586408v22.097038h23.678721a1.256042 1.256042 0 0 1 0.790842 0.27912 2.046884 2.046884 0 0 1 0.604761 0.651282 3.768126 3.768126 0 0 1 0.32564 1.209522 10.280938 10.280938 0 0 1 0 1.814283 8.652735 8.652735 0 0 1 0 1.674723 3.489006 3.489006 0 0 1-0.32564 1.163002 1.488643 1.488643 0 0 1-0.604761 0.604761 1.535163 1.535163 0 0 1-0.790842 0h-23.678721v25.260403h27.912048a1.721243 1.721243 0 0 1 0.790842 0.2326 2.046884 2.046884 0 0 1 0.604761 0.651282 3.070325 3.070325 0 0 1 0.372161 1.209522 10.280938 10.280938 0 0 1 0.2326 2.000363zM247.254225 879.694712a11.211339 11.211339 0 0 1 0 1.860803 4.652008 4.652008 0 0 1-0.325641 1.302562 2.326004 2.326004 0 0 1-0.51172 0.744322 1.349082 1.349082 0 0 1-0.744322 0 4.884608 4.884608 0 0 1-2.186444-1.023442 32.238415 32.238415 0 0 0-4.047246-2.279484 35.587861 35.587861 0 0 0-6.140651-2.279484 30.331092 30.331092 0 0 0-8.513175-1.069962A25.353444 25.353444 0 0 0 213.992368 879.229511a22.329638 22.329638 0 0 0-7.815374 5.90805 25.586044 25.586044 0 0 0-4.931128 8.931856 34.7505 34.7505 0 0 0-1.721243 11.211339 35.355261 35.355261 0 0 0 1.860803 12.002181 25.586044 25.586044 0 0 0 5.210249 8.838815 22.469199 22.469199 0 0 0 7.954934 5.442849 26.330365 26.330365 0 0 0 10.094857 1.860803 29.447211 29.447211 0 0 0 6.605851-0.790841 24.330002 24.330002 0 0 0 6.466292-2.232964v-20.561875h-16.375069a1.535163 1.535163 0 0 1-1.395602-0.930402 6.466291 6.466291 0 0 1-0.465201-2.884245 17.63111 17.63111 0 0 1 0-1.767763 5.349809 5.349809 0 0 1 0.372161-1.209522 2.698165 2.698165 0 0 1 0.558241-0.651281 1.256042 1.256042 0 0 1 0.837361-0.2326h22.515719a2.605124 2.605124 0 0 1 1.163002 0.2326 2.698165 2.698165 0 0 1 1.116482 0.651281 2.651645 2.651645 0 0 1 0.744321 1.163002 5.210249 5.210249 0 0 1 0.279121 1.767763v26.888606a5.62893 5.62893 0 0 1-0.465201 2.419045 4.652008 4.652008 0 0 1-2.093404 1.860803c-1.069962 0.511721-2.419044 1.069962-4.093767 1.721243a47.264401 47.264401 0 0 1-5.163729 1.535162 42.426313 42.426313 0 0 1-5.396329 1.023442 53.265492 53.265492 0 0 1-5.396329 0.325641 39.914229 39.914229 0 0 1-14.607305-2.558605 29.912411 29.912411 0 0 1-10.885699-7.210612 31.587134 31.587134 0 0 1-6.791932-11.25786 42.426313 42.426313 0 0 1-2.326004-14.607305 43.868435 43.868435 0 0 1 2.512085-15.212066 33.354897 33.354897 0 0 1 7.164092-11.67654 31.633654 31.633654 0 0 1 11.071779-7.443213 37.216064 37.216064 0 0 1 14.281665-2.651644A39.262947 39.262947 0 0 1 232.6004 869.925495a43.449755 43.449755 0 0 1 6.280211 1.674723 25.958205 25.958205 0 0 1 4.652008 2.093404 14.560785 14.560785 0 0 1 2.605124 1.814283 3.907687 3.907687 0 0 1 0.976922 1.628203 9.536616 9.536616 0 0 1 0.13956 2.558604zM317.499546 937.333091a6.419771 6.419771 0 0 1 0.465201 1.953843 1.209522 1.209522 0 0 1-0.418681 1.116482 2.512084 2.512084 0 0 1-1.442123 0.465201 20.468835 20.468835 0 0 1-2.698164 0h-2.698165a5.67545 5.67545 0 0 1-1.535163-0.27912 2.326004 2.326004 0 0 1-0.744321-0.511721 6.745412 6.745412 0 0 1-0.465201-0.837362l-6.04761-17.165909h-29.30765l-5.81501 16.979829a2.372524 2.372524 0 0 1-0.418681 0.837361 2.744685 2.744685 0 0 1-0.790842 0.604761 4.652008 4.652008 0 0 1-1.488642 0.325641 17.21243 17.21243 0 0 1-2.465564 0 19.910594 19.910594 0 0 1-2.605125 0 2.419044 2.419044 0 0 1-1.395602-0.558241 1.209522 1.209522 0 0 1-0.372161-1.116482 5.303289 5.303289 0 0 1 0.465201-1.907323l23.632201-65.546793a2.651645 2.651645 0 0 1 0.604761-0.976921 2.372524 2.372524 0 0 1 1.023441-0.604761 7.815373 7.815373 0 0 1 1.721243-0.279121h5.58241a8.327094 8.327094 0 0 1 1.860803 0.279121 2.651645 2.651645 0 0 1 1.116482 0.651281 4.977649 4.977649 0 0 1 0.604761 0.976921z m-30.377613-57.824459l-12.14174 35.16918h24.516082zM365.880429 936.58877a10.280938 10.280938 0 0 1 0 1.814283 4.977649 4.977649 0 0 1-0.325641 1.256042 2.000363 2.000363 0 0 1-0.604761 0.744321 1.302562 1.302562 0 0 1-0.837361 0.279121h-31.354534A3.954207 3.954207 0 0 1 330.292568 939.705615a3.489006 3.489006 0 0 1-1.116482-2.977285v-65.128112a1.442122 1.442122 0 0 1 0-0.790841 1.535163 1.535163 0 0 1 0.744321-0.511721 8.047974 8.047974 0 0 1 1.488643-0.325641 15.025986 15.025986 0 0 1 2.232963 0 15.258586 15.258586 0 0 1 2.279484 0 7.489733 7.489733 0 0 1 1.442123 0.325641 1.349082 1.349082 0 0 1 0.744321 0.511721 1.442122 1.442122 0 0 1 0 0.790841v60.987825h25.306924a1.628203 1.628203 0 0 1 0.837361 0 2.977285 2.977285 0 0 1 0.604761 0.697801 4.093767 4.093767 0 0 1 0.325641 1.256042 10.467018 10.467018 0 0 1 0.697801 2.046884zM455.896784 904.350354a48.892604 48.892604 0 0 1-2.372525 16.002908 28.656369 28.656369 0 0 1-6.931491 11.350899 27.912048 27.912048 0 0 1-11.025259 6.698892 47.078321 47.078321 0 0 1-15.584227 2.279484h-15.025986a3.954207 3.954207 0 0 1-2.372524-0.883882 3.489006 3.489006 0 0 1-1.116482-2.977285v-62.895148a3.535526 3.535526 0 0 1 1.116482-2.977285 3.907687 3.907687 0 0 1 2.372524-0.837361h15.956387a44.473196 44.473196 0 0 1 15.491187 2.372524 27.912048 27.912048 0 0 1 10.606578 6.745411 28.423769 28.423769 0 0 1 6.466291 10.746139 42.798474 42.798474 0 0 1 2.419045 14.374704z m-9.862257 0.372161a37.216064 37.216064 0 0 0-1.442123-10.653098 22.515719 22.515719 0 0 0-4.652008-8.513175 20.468835 20.468835 0 0 0-7.675813-5.62893 30.098492 30.098492 0 0 0-11.955661-2.000363h-9.304016v54.893694h9.676177a32.564056 32.564056 0 0 0 11.39742-1.721243A18.608032 18.608032 0 0 0 439.614756 925.749591a22.190078 22.190078 0 0 0 4.652008-8.745775 42.984554 42.984554 0 0 0 1.581682-12.281301zM529.25895 904.582955a54.335453 54.335453 0 0 1-2.046884 15.398146 32.564056 32.564056 0 0 1-6.00109 11.72306 26.702526 26.702526 0 0 1-10.048337 7.396693 35.866982 35.866982 0 0 1-13.956024 2.605125 36.285662 36.285662 0 0 1-13.956024-2.372525 24.516082 24.516082 0 0 1-9.583137-6.884971 29.447211 29.447211 0 0 1-5.62893-11.25786 56.987098 56.987098 0 0 1-1.860803-15.398146 52.986371 52.986371 0 0 1 2.000364-15.165546 31.214974 31.214974 0 0 1 6.04761-11.5835 26.376885 26.376885 0 0 1 10.094857-7.350173 35.02962 35.02962 0 0 1 13.956024-2.605124 36.332182 36.332182 0 0 1 13.537344 2.326004 24.934763 24.934763 0 0 1 9.629656 6.838451 29.30765 29.30765 0 0 1 5.72197 11.1183 55.824096 55.824096 0 0 1 2.093404 15.212066z m-9.955297 0.651281a56.242777 56.242777 0 0 0-1.023442-11.164819 26.609486 26.609486 0 0 0-3.535526-8.931856 17.026349 17.026349 0 0 0-6.652372-5.90805 21.817917 21.817917 0 0 0-10.234417-2.139924 21.445757 21.445757 0 0 0-10.234418 2.279484 19.305833 19.305833 0 0 0-6.698891 6.140651 25.120843 25.120843 0 0 0-3.721607 8.885335 49.962566 49.962566 0 0 0-1.116482 10.699619 62.429947 62.429947 0 0 0 1.023442 11.490459 25.493004 25.493004 0 0 0 3.489006 8.978376 16.421588 16.421588 0 0 0 6.559331 5.90805 22.655279 22.655279 0 0 0 10.327458 2.093404 21.213156 21.213156 0 0 0 10.327458-2.279484 18.608032 18.608032 0 0 0 6.791931-6.187171 27.400327 27.400327 0 0 0 3.628567-9.024895 50.706887 50.706887 0 0 0 1.069962-10.839179zM591.177176 930.68072a14.979466 14.979466 0 0 1 0 1.535162 6.978012 6.978012 0 0 1 0 1.116482 3.163365 3.163365 0 0 1-0.372161 0.883882 5.349809 5.349809 0 0 1-0.744321 0.930401 16.282028 16.282028 0 0 1-2.326004 1.674723 26.609486 26.609486 0 0 1-4.326367 2.186444 34.285299 34.285299 0 0 1-5.90805 1.767763 33.075777 33.075777 0 0 1-7.350173 0.744321 32.284935 32.284935 0 0 1-12.420861-2.279484 24.795203 24.795203 0 0 1-9.304016-6.745411 30.470652 30.470652 0 0 1-6.001091-11.071779 49.683445 49.683445 0 0 1-2.093403-15.119026 50.288206 50.288206 0 0 1 2.232964-15.630747 33.727058 33.727058 0 0 1 6.37325-11.63002 26.469925 26.469925 0 0 1 9.769217-7.303653 30.982373 30.982373 0 0 1 12.606942-2.512084 27.912048 27.912048 0 0 1 5.535889 0.697801 33.122297 33.122297 0 0 1 5.34981 1.442123 25.306923 25.306923 0 0 1 4.372887 2.000363 13.956024 13.956024 0 0 1 2.651645 1.907323 5.210249 5.210249 0 0 1 0.930401 1.116482 3.163365 3.163365 0 0 1 0.372161 0.883882 7.396693 7.396693 0 0 1 0 1.209522 9.583136 9.583136 0 0 1 0 1.721243v1.814283a6.605851 6.605851 0 0 1-0.325641 1.302562 1.907323 1.907323 0 0 1-0.51172 0.744321 1.163002 1.163002 0 0 1-0.744322 0.279121 4.093767 4.093767 0 0 1-2.139923-1.069962c-0.930402-0.697801-2.093404-1.488643-3.535527-2.372524a29.540251 29.540251 0 0 0-5.256769-2.326004 23.49264 23.49264 0 0 0-7.443212-1.069962 19.119753 19.119753 0 0 0-8.559695 1.907323 17.53807 17.53807 0 0 0-6.605851 5.53589 26.795566 26.795566 0 0 0-4.279848 8.885335 45.170998 45.170998 0 0 0-1.488642 12.048701 43.031074 43.031074 0 0 0 1.442122 11.8161 25.027803 25.027803 0 0 0 4.186807 8.652735 16.979829 16.979829 0 0 0 6.652372 5.210249 21.724877 21.724877 0 0 0 8.931855 1.767763 23.26004 23.26004 0 0 0 7.350173-1.023442 31.261494 31.261494 0 0 0 5.396329-2.326004 38.751227 38.751227 0 0 0 3.628566-2.326004 4.279847 4.279847 0 0 1 2.232964-1.023441 0.930402 0.930402 0 0 1 0.651281 0 0.930402 0.930402 0 0 1 0.465201 0.604761 6.652371 6.652371 0 0 1 0 1.302562c0.558241 0.604761 0.604761 1.302562 0.604761 2.139924zM656.630929 914.584772a32.564056 32.564056 0 0 1-1.860804 11.49046 23.49264 23.49264 0 0 1-5.349809 8.513174 22.794839 22.794839 0 0 1-8.513174 5.303289 33.494458 33.494458 0 0 1-11.39742 1.814284 31.028893 31.028893 0 0 1-10.653098-1.721243 23.26004 23.26004 0 0 1-8.234054-4.977649 21.445757 21.445757 0 0 1-5.25677-8.234054 32.098855 32.098855 0 0 1-1.860803-11.44394v-43.775395a1.163002 1.163002 0 0 1 0.232601-0.790841 1.349082 1.349082 0 0 1 0.744321-0.511721 7.768853 7.768853 0 0 1 1.395602-0.325641 15.537707 15.537707 0 0 1 2.326004 0 15.956387 15.956387 0 0 1 2.232964 0 7.489733 7.489733 0 0 1 1.442123 0.325641 1.767763 1.767763 0 0 1 0.744321 0.511721 1.442122 1.442122 0 0 1 0 0.790841v42.612393a27.912048 27.912048 0 0 0 1.209522 8.559695 16.561148 16.561148 0 0 0 3.442486 6.09413 14.700345 14.700345 0 0 0 5.489369 3.628567 19.305833 19.305833 0 0 0 7.164093 1.256042 20.840996 20.840996 0 0 0 7.257132-1.209522 13.211703 13.211703 0 0 0 5.396329-3.628567 16.049428 16.049428 0 0 0 3.395966-5.90805 26.190805 26.190805 0 0 0 1.163002-8.280574v-43.124114a1.442122 1.442122 0 0 1 0-0.790841 1.349082 1.349082 0 0 1 0.744322-0.511721 7.489733 7.489733 0 0 1 1.442122-0.325641 15.258586 15.258586 0 0 1 2.279484 0 14.374705 14.374705 0 0 1 2.186444 0 7.489733 7.489733 0 0 1 1.442122 0.325641 1.535163 1.535163 0 0 1 0.744321 0.511721 1.163002 1.163002 0 0 1 0.232601 0.790841zM751.950572 939.240414a1.302562 1.302562 0 0 1 0 0.744322 1.488643 1.488643 0 0 1-0.790841 0.558241l-1.442122 0.32564a14.421225 14.421225 0 0 1-2.279484 0 14.793385 14.793385 0 0 1-2.186444 0 12.746502 12.746502 0 0 1-1.488643-0.32564 1.581683 1.581683 0 0 1-0.744321-0.558241 1.302562 1.302562 0 0 1 0-0.744322v-61.453025L717.618753 939.705615a3.302926 3.302926 0 0 1-0.4652 0.651281 3.116845 3.116845 0 0 1-0.883882 0.465201 5.303289 5.303289 0 0 1-1.349082 0.279121h-1.907324a12.002181 12.002181 0 0 1-1.953843 0 6.745412 6.745412 0 0 1-1.349082-0.279121 3.116845 3.116845 0 0 1-0.883882-0.465201 1.209522 1.209522 0 0 1-0.37216-0.604761l-23.771761-61.732146v61.220425a1.302562 1.302562 0 0 1 0 0.744322 1.488643 1.488643 0 0 1-0.790842 0.558241l-1.488642 0.32564a14.839906 14.839906 0 0 1-2.279484 0 15.025986 15.025986 0 0 1-2.232964 0l-1.442122-0.32564a1.395602 1.395602 0 0 1-0.744322-0.558241 1.256042 1.256042 0 0 1 0-0.744322V874.577503a4.093767 4.093767 0 0 1 1.209522-3.302925 4.279847 4.279847 0 0 1 2.279484-1.349083h5.76849a12.327821 12.327821 0 0 1 3.116846 0.325641 7.071052 7.071052 0 0 1 2.326004 1.023442 6.931492 6.931492 0 0 1 1.674723 1.814283 18.980193 18.980193 0 0 1 1.163002 2.558604l20.143194 51.172088h0.279121l20.980556-50.892968a13.025622 13.025622 0 0 1 1.349082-2.791204 6.09413 6.09413 0 0 1 1.581683-1.814283 4.977649 4.977649 0 0 1 1.907323-0.976922 7.629293 7.629293 0 0 1 2.419044-0.325641h6.047611a5.90805 5.90805 0 0 1 1.581682 0.232601 2.884245 2.884245 0 0 1 1.256042 0.790841 3.814647 3.814647 0 0 1 0.883882 1.302562 5.67545 5.67545 0 0 1 0.32564 1.953844zM809.961112 936.77485a9.304016 9.304016 0 0 1 0 1.721243 3.070325 3.070325 0 0 1-0.372161 1.256042 1.814283 1.814283 0 0 1-0.604761 0.697801 1.581683 1.581683 0 0 1-0.790841 0.232601h-33.866618a3.954207 3.954207 0 0 1-2.372524-0.883882 3.489006 3.489006 0 0 1-1.116482-2.977285v-62.895148a3.535526 3.535526 0 0 1 1.116482-2.977285 3.907687 3.907687 0 0 1 2.372524-0.837361h33.447937a1.442122 1.442122 0 0 1 0.790842 0.2326 1.302562 1.302562 0 0 1 0.604761 0.697801 6.419771 6.419771 0 0 1 0.32564 1.209522 10.467018 10.467018 0 0 1 0 1.860803 9.536616 9.536616 0 0 1 0 1.721243 5.070689 5.070689 0 0 1-0.32564 1.163002 1.302562 1.302562 0 0 1-0.604761 0.697802 1.442122 1.442122 0 0 1-0.790842 0.2326h-27.539887v22.097038h23.632201a1.256042 1.256042 0 0 1 0.790841 0.27912 2.046884 2.046884 0 0 1 0.604761 0.651282 3.721606 3.721606 0 0 1 0.372161 1.209522v1.814283a16.421588 16.421588 0 0 1 0 1.674723 3.395966 3.395966 0 0 1-0.372161 1.163002 1.488643 1.488643 0 0 1-0.604761 0.604761 1.535163 1.535163 0 0 1-0.790841 0h-23.632201v25.260403h27.912048a1.581683 1.581683 0 0 1 0.790841 0.2326 2.046884 2.046884 0 0 1 0.604761 0.651282 3.070325 3.070325 0 0 1 0.372161 1.209522 10.280938 10.280938 0 0 1 0.04652 2.000363zM878.53171 936.77485a4.652008 4.652008 0 0 1-0.372161 1.860803 3.302926 3.302926 0 0 1-0.976921 1.256042 3.535526 3.535526 0 0 1-1.302563 0.697802 5.53589 5.53589 0 0 1-1.488642 0.2326h-3.070325a10.234418 10.234418 0 0 1-2.558605-0.27912 6.512811 6.512811 0 0 1-2.093403-1.116482 12.932582 12.932582 0 0 1-2.000364-2.139924 34.378339 34.378339 0 0 1-2.093403-3.489006l-21.492277-40.146829c-1.116482-2.046884-2.279484-4.233327-3.395966-6.512811s-2.232964-4.652008-3.209886-6.605852V939.240414a1.116482 1.116482 0 0 1-0.2326 0.744322 1.395602 1.395602 0 0 1-0.744321 0.558241l-1.442123 0.32564a18.608032 18.608032 0 0 1-4.652008 0 10.606578 10.606578 0 0 1-1.395602-0.32564 1.395602 1.395602 0 0 1-0.744322-0.558241 1.116482 1.116482 0 0 1-0.2326-0.744322v-65.128112a3.721606 3.721606 0 0 1 1.209522-3.116845 4.652008 4.652008 0 0 1 2.698165-0.930402h4.652008a10.932219 10.932219 0 0 1 2.698164 0.279121 5.95457 5.95457 0 0 1 2.000364 0.883881 8.838815 8.838815 0 0 1 1.674723 1.767763 22.887879 22.887879 0 0 1 1.721243 2.791205l16.514628 30.982374 2.977285 5.535889c0.930402 1.767763 1.860803 3.535526 2.744685 5.303289l2.605124 5.163729 2.558605 5.070689v-8.931856-47.264401a1.395602 1.395602 0 0 1 0-0.697801 1.721243 1.721243 0 0 1 0.790841-0.558241 4.977649 4.977649 0 0 1 1.442123-0.372161 16.514628 16.514628 0 0 1 2.326004 0 15.444667 15.444667 0 0 1 2.186443 0 4.977649 4.977649 0 0 1 1.442123 0.372161 1.581683 1.581683 0 0 1 0.744321 0.558241 1.395602 1.395602 0 0 1 0 0.697801zM941.473378 874.158822a10.699618 10.699618 0 0 1 0 1.814284 3.070325 3.070325 0 0 1-0.37216 1.209522 1.674723 1.674723 0 0 1-0.558241 0.697801 1.535163 1.535163 0 0 1-0.790842 0h-19.864074v61.359985a1.302562 1.302562 0 0 1-0.2326 0.744322 1.395602 1.395602 0 0 1-0.744322 0.558241l-1.442122 0.32564a15.258586 15.258586 0 0 1-2.279484 0 15.491187 15.491187 0 0 1-2.232964 0l-1.442122-0.32564a1.488643 1.488643 0 0 1-0.790842-0.558241 1.302562 1.302562 0 0 1-0.2326-0.744322v-61.173905h-19.817554a1.535163 1.535163 0 0 1-0.790842 0 1.674723 1.674723 0 0 1-0.55824-0.697801 4.093767 4.093767 0 0 1-0.372161-1.209522 11.86262 11.86262 0 0 1 0-3.628566 3.954207 3.954207 0 0 1 0.372161-1.302563 1.442122 1.442122 0 0 1 0.55824-0.697801 1.581683 1.581683 0 0 1 0.790842-0.2326H939.705615a1.581683 1.581683 0 0 1 0.790841 0.2326 1.442122 1.442122 0 0 1 0.558241 0.697801 3.070325 3.070325 0 0 1 0.372161 1.302563 10.699618 10.699618 0 0 1 0.04652 1.628202zM989.0169 921.097583a20.561875 20.561875 0 0 1-1.814283 8.838815 18.608032 18.608032 0 0 1-5.070689 6.559332 21.073596 21.073596 0 0 1-7.629293 4.047247 31.121933 31.121933 0 0 1-9.304016 1.395602 36.657823 36.657823 0 0 1-6.605851-0.604761 35.913502 35.913502 0 0 1-5.39633-1.488643 24.795203 24.795203 0 0 1-3.954206-1.767763 12.979102 12.979102 0 0 1-2.232964-1.581682 4.233327 4.233327 0 0 1-0.930402-1.674723 10.653098 10.653098 0 0 1-0.27912-2.698165 12.513902 12.513902 0 0 1 0-2.000363 4.093767 4.093767 0 0 1 0.32564-1.256043 1.442122 1.442122 0 0 1 0.558241-0.697801 1.256042 1.256042 0 0 1 0.744321 0 4.140287 4.140287 0 0 1 2.139924 0.930402c0.930402 0.604761 2.139924 1.256042 3.582046 2.000363a34.517899 34.517899 0 0 0 5.256769 2.046884 23.49264 23.49264 0 0 0 7.117572 0.976922 17.58459 17.58459 0 0 0 5.58241-0.837362 13.118663 13.118663 0 0 0 4.372888-2.326004 9.908777 9.908777 0 0 0 2.791204-3.675086 12.048701 12.048701 0 0 0 0.976922-4.977649 9.304016 9.304016 0 0 0-1.349082-5.117209 13.537343 13.537343 0 0 0-3.582046-3.721606 31.401054 31.401054 0 0 0-5.117209-2.930765l-5.86153-2.744685a62.802108 62.802108 0 0 1-5.81501-3.070325 23.771761 23.771761 0 0 1-5.070689-4.000727 18.096311 18.096311 0 0 1-3.628566-5.349809 17.770671 17.770671 0 0 1-1.395603-7.396693 18.608032 18.608032 0 0 1 1.628203-7.861893 16.235508 16.235508 0 0 1 4.652008-5.81501 20.143195 20.143195 0 0 1 6.791932-3.582046 29.726331 29.726331 0 0 1 8.559695-1.209523 27.121207 27.121207 0 0 1 4.652008 0.418681 26.097765 26.097765 0 0 1 4.652008 1.069962 25.679084 25.679084 0 0 1 3.721606 1.535163 10.885699 10.885699 0 0 1 2.186444 1.349082 3.721606 3.721606 0 0 1 0.651281 0.837361 2.744685 2.744685 0 0 1 0.27912 0.744322 6.978012 6.978012 0 0 1 0 1.116482v3.442486a8.280574 8.280574 0 0 1 0 1.302562 2.279484 2.279484 0 0 1-0.4652 0.744321 1.256042 1.256042 0 0 1-0.697802 0 4.047247 4.047247 0 0 1-1.860803-0.744321l-3.163365-1.721243a28.377249 28.377249 0 0 0-4.372888-1.767763 19.538434 19.538434 0 0 0-5.72197-0.790842 15.537707 15.537707 0 0 0-5.117208 0.790842 10.792659 10.792659 0 0 0-3.582047 2.139923 8.327094 8.327094 0 0 0-2.139923 3.070326 10.467018 10.467018 0 0 0-0.697801 3.814646 9.304016 9.304016 0 0 0 1.349082 5.070689 13.956024 13.956024 0 0 0 3.628566 3.768126 34.285299 34.285299 0 0 0 5.163729 3.023806l5.90805 2.744684c2.000363 0.930402 3.954207 1.953843 5.86153 3.023806a24.143921 24.143921 0 0 1 5.163729 3.954206 18.096311 18.096311 0 0 1 3.628566 5.34981 17.39851 17.39851 0 0 1 0.930402 7.303652z" fill="#337ab7" p-id="20987"></path></svg>