<?xml version="1.0" standalone="no"?><!DOCTYPE svg PUBLIC "-//W3C//DTD SVG 1.1//EN" "http://www.w3.org/Graphics/SVG/1.1/DTD/svg11.dtd"><svg t="1662610406933" class="icon" viewBox="0 0 1024 1024" version="1.1" xmlns="http://www.w3.org/2000/svg" p-id="20659" width="26" height="26" xmlns:xlink="http://www.w3.org/1999/xlink"><path d="M223.293464 180.745386h569.482277v62.678867H223.293464v-62.678867z m-3.965398 128.939383h569.418319v62.678867H219.328066v-62.678867z m0 125.421692v62.742825h218.992286v-62.678867H219.328066z m0 125.48565H318.846757v62.678867H219.328066v-62.678867zM87.894319 72.720277h832.285813v456.468443h79.627744V65.748852c0-34.857125-31.851098-62.678867-71.632991-62.678867H75.934168c-39.845851 0-71.632991 27.821742-71.632991 62.678867v885.115144c0 34.793167 31.78714 62.678867 71.632991 62.678866h334.500484v-73.167983H87.958277V72.720277z m919.908311 892.086569l-111.478842-97.599951c-4.029356-3.453733-7.994753-6.971425-11.960152-6.971425 23.856344-31.339433 39.781893-69.71425 39.781893-111.478842 0-104.571375-99.518691-191.682209-218.992286-191.682208-119.473595 0-219.056244 87.110834-219.056244 191.682208 0 104.507417 99.582649 191.618251 219.056244 191.618251 47.776647 0 91.587895-13.94285 127.404391-34.857125 0 3.517692 4.029356 7.035383 7.994753 10.489116l111.478843 97.535992c15.989507 13.94285 39.845851 13.94285 55.7714 0s15.925549-34.793167 0-48.736016z m-302.649387-76.685676c-87.622498 0-159.255489-62.678867-159.255488-139.4285 0-76.621717 71.632991-139.364542 159.255488-139.364542s159.255489 62.742825 159.255489 139.4285c0 76.621717-71.632991 139.364542-159.255489 139.364542z" fill="#337ab7" p-id="20660"></path></svg>